<?xml version="1.0" encoding="utf-8"?>
<!-- Generator: Adobe Illustrator 23.0.1, SVG Export Plug-In . SVG Version: 6.00 Build 0)  -->
<svg version="1.1" id="Layer_1" xmlns="http://www.w3.org/2000/svg" xmlns:xlink="http://www.w3.org/1999/xlink" x="0px" y="0px"
	 viewBox="0 0 512 512" style="enable-background:new 0 0 512 512;" xml:space="preserve">
<style type="text/css">
	.st0{fill-rule:evenodd;clip-rule:evenodd;fill:#1B1B1B;}
</style>
<path class="st0" d="M423.1,255.5c0,73.7-46.9,139.6-114,160.2c-0.7,0.2-1.3,0.3-2,0.3c-2.9,0-5.5-1.8-6.4-4.7
	c-1.1-3.5,0.9-7.2,4.4-8.3c61.6-18.9,104.6-79.6,104.6-147.5c0-76.5-52.2-136.4-127-146l32.4,49.6c2,3.1,1.1,7.2-2,9.2
	c-1.1,0.7-2.4,1.1-3.6,1.1c-2.2,0-4.3-1.1-5.6-3l-40.1-61.5c-1-1.5-1.3-3.4-0.9-5.2c0.4-1.8,1.6-3.3,3.2-4.2l66.8-38.5
	c3.2-1.9,7.3-0.8,9.1,2.4c1.9,3.2,0.8,7.3-2.4,9.1l-49.7,28.7C367.3,109.7,423.1,175.3,423.1,255.5z M246,416.6l-66.8,38.5
	c-1,0.6-2.2,0.9-3.3,0.9c-2.3,0-4.6-1.2-5.8-3.3c-1.9-3.2-0.8-7.3,2.4-9.1l49.7-28.7c-77.6-12.6-133.3-78.1-133.3-158.3
	c0-73.7,46.9-139.6,114.1-160.2c3.5-1.1,7.3,0.9,8.4,4.4c1.1,3.5-0.9,7.2-4.4,8.3c-61.6,18.9-104.6,79.6-104.6,147.5
	c0,76.5,52.2,136.4,127,146L196.9,353c-2-3.1-1.1-7.2,2-9.2c3.1-2,7.2-1.1,9.2,2l40.1,61.5c1,1.5,1.3,3.4,0.9,5.2
	C248.7,414.1,247.6,415.7,246,416.6z"/>
</svg>
