<?xml version="1.0" encoding="utf-8"?>
<!-- Generator: Adobe Illustrator 25.0.1, SVG Export Plug-In . SVG Version: 6.00 Build 0)  -->
<svg version="1.1" id="Layer_1" xmlns="http://www.w3.org/2000/svg" xmlns:xlink="http://www.w3.org/1999/xlink" x="0px" y="0px"
	 viewBox="0 0 511.13 538.19" style="enable-background:new 0 0 511.13 538.19;" xml:space="preserve">
<style type="text/css">
	.st0{fill:#C6332C;}
</style>
<path id="XMLID_323_" class="st0" d="M0,0c36.61,6.67,71.85,13.03,107.08,19.5c95.28,17.5,190.54,35.12,285.85,52.46
	c9.78,1.78,17.74,5.3,25.08,12.46c29.32,28.61,59.16,56.71,89.08,84.7c4.93,4.61,5.47,7.46,0.98,12.91
	C410.98,299.85,314.1,417.83,217.16,535.75c-0.48,0.58-1.18,0.98-2.99,2.44C142.85,358.96,71.69,180.16,0,0z M212.26,455.77
	c0.6-0.08,1.2-0.16,1.79-0.24c3.42-27.92,6.85-55.84,10.24-83.76c5.78-47.54,11.57-95.07,17.28-142.61
	c0.73-6.04,1.4-11.36-4.76-16.41C180.6,166.72,124.74,120.26,68.76,73.96c-2.82-2.34-5.34-5.93-9.85-3.38
	C110.06,199.06,161.16,327.41,212.26,455.77z M243.25,455.25c0.73,0.29,1.46,0.59,2.19,0.88C315.97,370.3,386.5,284.47,458.4,196.97
	c-62.63,11.29-122.97,22.22-183.34,32.97c-6.17,1.1-5.28,5.55-5.78,9.62c-5.95,48.31-11.97,96.61-17.85,144.93
	C248.56,408.06,245.97,431.66,243.25,455.25z M369.35,96.94c-97.98-18.01-193.29-35.53-289.42-53.2c0.88,1.94,1,2.83,1.5,3.25
	c56.22,46.65,112.53,93.18,168.6,140.02c5.43,4.54,8.41,2.49,12.6-1.02c29.92-25.08,59.95-50.02,89.95-75.01
	C357.49,106.87,362.4,102.76,369.35,96.94z M462.9,167.02c-20.41-19.42-39.43-37.42-58.32-55.56c-2.88-2.77-4.97-2.47-7.85-0.06
	c-32.95,27.56-65.97,55.03-98.97,82.53c0.31,0.91,0.63,1.83,0.94,2.74C352.81,186.9,406.92,177.13,462.9,167.02z"/>
</svg>
